<svg xmlns:dc="http://purl.org/dc/elements/1.1/" xmlns:cc="http://creativecommons.org/ns#" xmlns:rdf="http://www.w3.org/1999/02/22-rdf-syntax-ns#" xmlns:svg="http://www.w3.org/2000/svg" xmlns="http://www.w3.org/2000/svg" xmlns:sodipodi="http://sodipodi.sourceforge.net/DTD/sodipodi-0.dtd" xmlns:inkscape="http://www.inkscape.org/namespaces/inkscape" version="1.1" id="svg2" xml:space="preserve" width="497.81601" height="497.81601" viewBox="0 0 497.81601 497.81601" sodipodi:docname="favicon.ai"><metadata id="metadata8"><rdf:RDF><cc:Work rdf:about=""><dc:format>image/svg+xml</dc:format><dc:type rdf:resource="http://purl.org/dc/dcmitype/StillImage"/></cc:Work></rdf:RDF></metadata><defs id="defs6"><clipPath clipPathUnits="userSpaceOnUse" id="clipPath18"><path d="M 0,373.362 H 373.362 V 0 H 0 Z" id="path16"/></clipPath></defs><sodipodi:namedview pagecolor="#ffffff" bordercolor="#666666" borderopacity="1" objecttolerance="10" gridtolerance="10" guidetolerance="10" inkscape:pageopacity="0" inkscape:pageshadow="2" inkscape:window-width="640" inkscape:window-height="480" id="namedview4"/><g id="g10" inkscape:groupmode="layer" inkscape:label="favicon" transform="matrix(1.3333333,0,0,-1.3333333,0,497.816)"><g id="g12"><g id="g14" clip-path="url(#clipPath18)"><g id="g20" transform="translate(373.362,186.681)"><path d="m 0,0 c 0,-103.101 -83.58,-186.681 -186.681,-186.681 -103.101,0 -186.681,83.58 -186.681,186.681 0,103.101 83.58,186.681 186.681,186.681 C -83.58,186.681 0,103.101 0,0" style="fill:#ffffff;fill-opacity:1;fill-rule:nonzero;stroke:none" id="path22"/></g><g id="g24" transform="translate(319.8167,252.8305)"><path d="m 0,0 c -29.116,48.314 -86.215,42.909 -100.993,7.754 -11.283,-26.839 5.534,-42.321 14.125,-48.149 l 0.009,-0.01 c 7.835,-1.945 18.89,-2.827 31.443,1.894 -0.375,-0.215 -10.927,-6.247 -23.218,-7.474 -4.214,-0.419 -7.93,-3.033 -9.528,-6.957 -1.555,-3.818 -2.34,-7.623 -2.633,-11.313 -14.944,-2.25 -20.359,0.94 -22.207,2.906 -4.384,4.657 -0.9,13.862 -0.833,14.034 1.079,2.66 -0.195,5.69 -2.851,6.781 -2.661,1.09 -5.706,-0.18 -6.799,-2.844 -0.256,-0.624 -6.168,-15.403 2.841,-25.058 4.389,-4.706 11.157,-7.056 20.437,-7.056 3.011,0 6.319,0.274 9.864,0.771 0.023,-0.146 0.045,-0.295 0.071,-0.443 -8.538,-0.258 -18.459,-1.98 -25.287,-7.632 -5.439,-4.503 -8.316,-10.989 -8.316,-18.753 0,-32.295 1.059,-71.804 1.069,-73.694 0.017,-2.869 2.346,-5.184 5.211,-5.184 h 0.029 c 2.878,0.017 5.198,2.363 5.181,5.24 -0.008,1.892 -1.069,41.374 -1.069,73.638 0,4.683 1.484,8.189 4.532,10.717 5.118,4.245 13.919,5.344 21.556,5.289 1.423,-3.681 2.975,-6.614 4.052,-8.463 6.704,-0.612 14.706,-0.033 23.438,3.249 -0.346,-0.194 -9.156,-5.228 -20.033,-7.042 -3.841,-0.641 -7.311,-2.798 -9.49,-6.026 -16.246,-24.066 -8.048,-78.436 48.286,-63.967 C 22.492,-151.442 29.114,-48.314 0,0" style="fill:#28666e;fill-opacity:1;fill-rule:nonzero;stroke:none" id="path26"/></g><g id="g28" transform="translate(153.7516,177.3385)"><path d="m 0,0 c 9.28,0 16.049,2.351 20.439,7.055 9.008,9.656 3.095,24.434 2.841,25.06 -1.095,2.662 -4.139,3.933 -6.799,2.844 -2.659,-1.092 -3.931,-4.123 -2.853,-6.782 0.067,-0.171 3.55,-9.378 -0.832,-14.035 -1.847,-1.964 -7.263,-5.156 -22.209,-2.904 -0.29,3.689 -1.077,7.493 -2.633,11.313 -1.596,3.922 -5.312,6.537 -9.526,6.956 -12.292,1.228 -22.843,7.26 -23.217,7.474 12.552,-4.722 23.608,-3.839 31.441,-1.893 l 0.01,0.01 c 8.591,5.826 25.407,21.308 14.123,48.147 -14.778,35.156 -71.875,40.561 -100.99,-7.753 -29.116,-48.315 -22.493,-151.442 41.111,-167.792 56.335,-14.468 64.533,39.901 48.286,63.968 -2.177,3.227 -5.647,5.382 -9.488,6.025 -10.877,1.815 -19.688,6.849 -20.033,7.043 8.732,-3.283 16.733,-3.862 23.434,-3.25 1.081,1.849 2.631,4.783 4.054,8.462 7.637,0.057 16.44,-1.043 21.556,-5.289 3.049,-2.527 4.531,-6.034 4.531,-10.716 0,-32.266 -1.058,-71.745 -1.068,-73.637 -0.018,-2.877 2.304,-5.223 5.183,-5.24 h 0.027 c 2.865,0 5.195,2.315 5.211,5.181 0.01,1.892 1.069,41.401 1.069,73.696 0,7.763 -2.875,14.251 -8.314,18.753 -6.83,5.652 -16.75,7.374 -25.287,7.63 0.025,0.148 0.046,0.298 0.07,0.446 C -6.319,0.275 -3.011,0 0,0" style="fill:#28666e;fill-opacity:1;fill-rule:nonzero;stroke:none" id="path30"/></g></g></g></g></svg>